<?xml version="1.0" encoding="utf-8"?>
<!-- Generator: Adobe Illustrator 24.1.3, SVG Export Plug-In . SVG Version: 6.00 Build 0)  -->
<svg version="1.1" id="Layer_1" xmlns="http://www.w3.org/2000/svg" xmlns:xlink="http://www.w3.org/1999/xlink" x="0px" y="0px"
	 viewBox="0 0 528.7 528.7" style="enable-background:new 0 0 528.7 528.7;" xml:space="preserve">
<style type="text/css">
	.st0{fill:#E31F3C;}
</style>
<g>
	<path class="st0" d="M38.6,225.7h148.5c21.3,0,38.6-17.3,38.6-38.6V38.6C225.7,17.3,243,0,264.3,0h0c21.3,0,38.6,17.3,38.6,38.6
		v148.5c0,21.3,17.3,38.6,38.6,38.6h148.5c21.3,0,38.6,17.3,38.6,38.6v0c0,21.3-17.3,38.6-38.6,38.6H341.5
		c-21.3,0-38.6,17.3-38.6,38.6v148.5c0,21.3-17.3,38.6-38.6,38.6h0c-21.3,0-38.6-17.3-38.6-38.6V341.5c0-21.3-17.3-38.6-38.6-38.6
		H38.6C17.3,302.9,0,285.7,0,264.3v0C0,243,17.3,225.7,38.6,225.7z"/>
</g>
</svg>
